<?xml version="1.0" encoding="UTF-8" standalone="no"?>
<svg
   width="128"
   height="128"
   version="1.1"
   id="svg6"
   sodipodi:docname="icon.svg"
   inkscape:version="1.4.2 (f4327f4, 2025-05-13)"
   xmlns:inkscape="http://www.inkscape.org/namespaces/inkscape"
   xmlns:sodipodi="http://sodipodi.sourceforge.net/DTD/sodipodi-0.dtd"
   xmlns="http://www.w3.org/2000/svg"
   xmlns:svg="http://www.w3.org/2000/svg">
  <defs
     id="defs6" />
  <sodipodi:namedview
     id="namedview6"
     pagecolor="#505050"
     bordercolor="#eeeeee"
     borderopacity="1"
     inkscape:showpageshadow="0"
     inkscape:pageopacity="0"
     inkscape:pagecheckerboard="0"
     inkscape:deskcolor="#505050"
     showgrid="false"
     inkscape:zoom="6.6796875"
     inkscape:cx="63.925146"
     inkscape:cy="64"
     inkscape:window-width="1920"
     inkscape:window-height="1057"
     inkscape:window-x="-8"
     inkscape:window-y="475"
     inkscape:window-maximized="1"
     inkscape:current-layer="svg6" />
  <rect
     width="124"
     height="124"
     x="2"
     y="2"
     fill="#363d52"
     stroke="#212532"
     stroke-width="4"
     rx="14"
     id="rect1" />
  <path
     d="m 22.927,80.295 v 3.333 q 41.107,35.754 82.214,0 v -3.333 z"
     id="path1"
     style="fill:#ffffff;stroke-width:0.101" />
  <path
     fill="#478cbf"
     d="m 22.927,80.295 15.352,1.414 c 0.808,0.06733 1.313,0.538666 1.515,1.414 l 0.404,6.767 13.332,1.01 0.808,-6.161 c 0.134666,-0.740666 0.639666,-1.245666 1.515,-1.515 h 16.362 c 0.875334,0.269334 1.380334,0.774334 1.515,1.515 l 0.808,6.161 13.332,-1.01 0.404,-6.767 c 0.202,-0.875334 0.707,-1.346666 1.515,-1.414 l 15.352,-1.414 V 55.449 c 2.02,-2.626 12.13926,1.982673 16.28524,-4.288602 C 119.5187,43.744456 115.07758,32.024246 108.70172,28.126082 101.16545,29.472748 96.758,39.289 94.132,41.107 91.438666,38.615666 88.476,36.461 85.244,34.643 85.715334,31.209 99.308647,26.427632 99.525684,19.101234 95.403307,13.473211 82.728977,7.5679829 73.479292,8.4218072 68.285351,14.161585 70.329666,25.990666 68.983,29.088 c -3.299334,-0.471334 -6.598666,-0.471334 -9.898,0 C 57.738334,25.990666 59.632941,14.161585 55.936076,7.9726846 48.782298,7.5679821 33.263521,13.772625 29.440561,19.400649 29.507895,26.427632 42.352666,31.209 42.824,34.643 39.592,36.461 36.629334,38.615666 33.936,41.107 31.31,39.289 28.699041,27.975672 20.713649,27.826667 14.487497,29.928339 7.9504737,44.492995 8.2885439,51.60952 11.985409,58.030503 20.907,52.823 22.927,55.449 Z m 0,3.333 v 3.939 c 0,27.876 82.113,27.876 82.214,0 v -3.939 l -13.534,1.212 -0.505,6.969 c -0.134666,0.673334 -0.606,1.111 -1.414,1.313 l -16.362,1.111 c -0.808,0 -1.346666,-0.370334 -1.616,-1.111 L 70.7,86.557 H 57.368 l -1.01,6.565 c -0.269334,0.740666 -0.808,1.111 -1.616,1.111 L 38.38,93.122 C 37.572,92.92 37.100666,92.482334 36.966,91.809 L 36.461,84.84 Z"
     id="path2"
     sodipodi:nodetypes="ccccccccccccccccccccccccccccccccsccccccccccccccc"
     style="stroke-width:0.101" />
  <path
     d="m 61.105,72.922 c 0,3.434 5.858,3.434 5.858,0 v -8.686 c 0,-3.434 -5.858,-3.434 -5.858,0 z"
     id="path3"
     style="fill:#ffffff;stroke-width:0.101" />
  <g
     id="g8">
    <path
       d="m 37.34375,53.851562 c -2.18431,0.07112 -2.714844,6.539857 -2.714844,10.697266 0,5.020269 3.919185,8.791016 8.939453,8.791016 5.020268,0 14.102308,-3.293051 9.839844,-5.945313 -1.442558,-0.897613 -2.863476,-1.931779 -4.271484,-3.068359 a 6.0599999,6.0599999 0 0 1 0.251953,1.728515 6.0599999,6.0599999 0 0 1 -6.060547,6.058594 6.0599999,6.0599999 0 0 1 -6.058594,-6.058594 6.0599999,6.0599999 0 0 1 6.058594,-6.060546 6.0599999,6.0599999 0 0 1 1.013672,0.08594 C 42.549099,58.375253 40.752217,56.561564 38.927734,54.710937 38.321957,54.09648 37.797097,53.836801 37.34375,53.851562 Z"
       style="fill:#ffffff;stroke-width:0.101"
       id="path6" />
    <path
       d="m 44.341797,60.080078 a 6.0599999,6.0599999 0 0 0 -1.013672,-0.08594 6.0599999,6.0599999 0 0 0 -6.058594,6.060546 6.0599999,6.0599999 0 0 0 6.058594,6.058594 6.0599999,6.0599999 0 0 0 6.060547,-6.058594 6.0599999,6.0599999 0 0 0 -0.251953,-1.728515 c -1.607715,-1.297789 -3.199316,-2.728699 -4.794922,-4.246094 z"
       style="fill:#414042;stroke-width:0.101"
       id="path8" />
  </g>
  <g
     id="g10"
     transform="matrix(-1,0,0,1,127.46845,0.29941523)">
    <path
       d="m 37.34375,53.851562 c -2.18431,0.07112 -2.714844,6.539857 -2.714844,10.697266 0,5.020269 3.919185,8.791016 8.939453,8.791016 5.020268,0 14.102308,-3.293051 9.839844,-5.945313 -1.442558,-0.897613 -2.863476,-1.931779 -4.271484,-3.068359 a 6.0599999,6.0599999 0 0 1 0.251953,1.728515 6.0599999,6.0599999 0 0 1 -6.060547,6.058594 6.0599999,6.0599999 0 0 1 -6.058594,-6.058594 6.0599999,6.0599999 0 0 1 6.058594,-6.060546 6.0599999,6.0599999 0 0 1 1.013672,0.08594 C 42.549099,58.375253 40.752217,56.561564 38.927734,54.710937 38.321957,54.09648 37.797097,53.836801 37.34375,53.851562 Z"
       style="fill:#ffffff;stroke-width:0.101"
       id="path9" />
    <path
       d="m 44.341797,60.080078 a 6.0599999,6.0599999 0 0 0 -1.013672,-0.08594 6.0599999,6.0599999 0 0 0 -6.058594,6.060546 6.0599999,6.0599999 0 0 0 6.058594,6.058594 6.0599999,6.0599999 0 0 0 6.060547,-6.058594 6.0599999,6.0599999 0 0 0 -0.251953,-1.728515 C 47.529004,63.02838 45.937403,61.59747 44.341797,60.080075 Z"
       style="fill:#414042;stroke-width:0.101"
       id="path10" />
  </g>
</svg>
